<svg id="vector" xmlns="http://www.w3.org/2000/svg" width="24.0d" height="24.0d" viewBox="0 0 24.0 24.0"><path fill="#000000ff" d="M12.2,17.6c-0.5,0 -0.9,0.4 -0.9,1s0.4,1 0.9,1s1,-0.4 1,-1S12.7,17.6 12.2,17.6zM6.5,12.3V3.8c0,-0.5 0.2,-0.9 0.5,-1.2C7.3,2.2 7.7,2 8.2,2h8C16.6,2 17,2.3 17,2.8s-0.3,0.8 -0.8,0.8h-8c0,0 -0.1,0 -0.2,0c-0.1,0 -0.1,0.1 -0.1,0.2V5h5.8c0.4,0 0.8,0.3 0.8,0.8s-0.3,0.8 -0.8,0.8H8v5.8C8,12.7 7.6,13 7.2,13S6.5,12.7 6.5,12.3zM20.9,3.1c-0.3,-0.3 -0.8,-0.3 -1.1,0L3.1,19.9c-0.3,0.3 -0.3,0.8 0,1.1c0.1,0.1 0.3,0.2 0.5,0.2S4,21.1 4.1,21l2.3,-2.3v1.6c0,1 0.8,1.8 1.8,1.8h8c0.5,0 0.9,-0.2 1.2,-0.5c0.3,-0.3 0.5,-0.8 0.5,-1.2V7.3c0,-0.1 0,-0.1 0,-0.2l3,-3C21.2,3.8 21.2,3.4 20.9,3.1zM16.4,20.4c0,0 -0.1,0.1 -0.2,0.1h-8c-0.1,0 -0.2,-0.1 -0.2,-0.2v-3v-0.1L8.1,17h8.3v3.3C16.4,20.3 16.4,20.4 16.4,20.4zM16.4,15.5H9.6l6.8,-6.8C16.4,8.7 16.4,15.5 16.4,15.5z" id="path_0"/></svg>