<svg id="vector" xmlns="http://www.w3.org/2000/svg" width="24.0d" height="24.0d" viewBox="0 0 24.0 24.0"><path fill="#010101ff" d="m12.78,3.17h0,0m-0.78,1.56l1.67,3.35c0.31,0.62 0.91,1.06 1.6,1.16l3.7,0.53 -2.67,2.57c-0.51,0.49 -0.74,1.19 -0.62,1.89l0.63,3.65 -3.34,-1.74c-0.3,-0.16 -0.64,-0.24 -0.99,-0.24s-0.68,0.08 -0.99,0.24l-3.34,1.74 0.63,-3.65c0.12,-0.69 -0.11,-1.4 -0.62,-1.89l-2.67,-2.57 3.7,-0.53c0.69,-0.1 1.29,-0.53 1.6,-1.16l1.67,-3.35m0,-2.58c-0.22,0 -0.45,0.12 -0.56,0.35l-2.45,4.91c-0.09,0.18 -0.27,0.31 -0.47,0.34l-5.47,0.79c-0.52,0.07 -0.72,0.7 -0.35,1.06l3.96,3.82c0.15,0.14 0.22,0.35 0.18,0.55l-0.93,5.39c-0.07,0.4 0.25,0.73 0.62,0.73 0.1,0 0.2,-0.02 0.29,-0.07l4.9,-2.55c0.09,-0.05 0.19,-0.07 0.29,-0.07s0.2,0.02 0.29,0.07l4.9,2.55c0.1,0.05 0.2,0.07 0.29,0.07 0.37,0 0.69,-0.33 0.62,-0.73l-0.93,-5.39c-0.04,-0.2 0.03,-0.41 0.18,-0.55l3.96,-3.82c0.37,-0.36 0.17,-0.99 -0.35,-1.06l-5.47,-0.79c-0.21,-0.03 -0.38,-0.16 -0.47,-0.34l-2.45,-4.91c-0.12,-0.23 -0.34,-0.35 -0.56,-0.35h0Z" id="path_0"/></svg>