<svg id="vector" xmlns="http://www.w3.org/2000/svg" width="24.0d" height="24.0d" viewBox="0 0 24.0 24.0"><path fill="#000000ff" d="M11.6,16c0,-0.4 -0.3,-0.8 -0.8,-0.8h-2c0,0 -0.1,0 -0.1,-0.1c-0.3,-1 -0.5,-2.1 -0.5,-3.1c0,-1.1 0.2,-2.2 0.5,-3.2l0.1,-0.1h6.4c0.1,0.3 0.1,0.5 0.3,0.9c0.1,0.3 0.4,0.6 0.7,0.6c0.1,0 0.1,0 0.2,0c0.4,-0.1 0.7,-0.5 0.6,-0.9c0,-0.2 -0.2,-0.5 -0.2,-0.7h2.9c0,0 0.1,0 0.1,0.1c0.3,0.7 0.6,1.6 0.7,2.2c0.1,0.4 0.4,0.7 0.8,0.6c0.4,-0.1 0.7,-0.4 0.6,-0.8c-0.7,-5 -5,-8.7 -10,-8.7C9.2,2 6.7,3 4.8,5c-1.9,1.9 -2.9,4.4 -2.9,7.1c0,1.5 0.3,3 1,4.3c1.4,3 4.4,5.3 7.9,5.7h0.1c0.4,0 0.7,-0.3 0.7,-0.7c0,-0.4 -0.2,-0.8 -0.7,-0.8c-2.5,-0.3 -4.6,-1.6 -6,-3.5c0,-0.1 0,-0.2 0.1,-0.2h2.5c0,0 0.1,0 0.1,0.1c0.4,0.9 0.9,1.8 1.5,2.5c0.1,0.2 0.6,0.5 1.1,0.1c0.4,-0.3 0.4,-0.7 0.1,-1.1c-0.4,-0.5 -0.7,-1.1 -1,-1.7c0,0 1,0 1.5,0C11.4,16.8 11.6,16.4 11.6,16zM14.1,3.6c2,0.5 3.7,1.7 4.8,3.4c0,0.1 0,0.2 -0.1,0.2h-2.5c0,0 -0.1,0 -0.1,-0.1c-0.5,-1.3 -1.3,-2.4 -2.2,-3.3C13.9,3.7 14,3.6 14.1,3.6zM12,4.1L12,4.1c1.1,0.8 2,1.8 2.6,2.9c0,0.1 0,0.2 -0.1,0.2h-5C9.4,7.2 9.3,7.1 9.4,7C10.1,5.8 10.9,4.9 12,4.1zM6.9,15.1c0,0.1 0,0.1 -0.1,0.1H4.1c0,0 -0.1,0 -0.1,-0.1c-0.1,-0.3 -0.7,-2.1 -0.7,-3.2c0,-1.1 0.2,-2.2 0.6,-3.1L4,8.7h2.9L7,8.8c-0.3,1 -0.5,2 -0.5,3.1C6.5,13 6.7,14.1 6.9,15.1zM7.5,7.2H4.8c0.3,-0.5 0.7,-0.9 1.1,-1.3C7,4.8 8.4,4 9.8,3.7c0.1,0 0.2,0.1 0.1,0.1c-1,0.9 -1.8,2 -2.3,3.3C7.6,7.1 7.6,7.2 7.5,7.2zM21.8,14.4c-0.3,-0.4 -0.9,-1 -1.5,-1.6c-0.8,-0.7 -1.3,-1.3 -1.5,-1.5S18.3,11 18,11h-3.6c-0.7,0 -1.2,0.5 -1.2,1.2v8.7c0,0.7 0.5,1.2 1.2,1.2H21c0.6,0 1.1,-0.5 1.1,-1.1c0,0 0,-5.5 0,-6C22.1,14.8 22.1,14.8 21.8,14.4zM18.4,13l1.8,1.8h-1.7c-0.1,0 -0.1,0 -0.1,-0.1V13zM20.6,20.6c0,0.1 0,0.1 -0.1,0.1h-5.7c-0.1,0 -0.1,0 -0.1,-0.1v-8c0,-0.1 0,-0.1 0.1,-0.1h2c0.1,0 0.1,0 0.1,0.1v2.3c0,0.8 0.6,1.4 1.4,1.4h2.2c0.1,0 0.1,0 0.1,0.1V20.6z" id="path_0"/></svg>