<svg id="vector" xmlns="http://www.w3.org/2000/svg" width="24.0d" height="24.0d" viewBox="0 0 24.0 24.0"><path fill="#010101ff" d="M16.2,4.5c-1.3,-1.2 -3.1,-1.7 -4.9,-1.5c-2.7,0.3 -5,2.5 -5.4,5.2c-0.3,2.2 0.5,4.3 2.2,5.7c0.4,0.3 0.6,0.7 0.6,1.1v0.8c0,0.7 0.6,1.2 1.2,1.2h4.3c0.7,0 1.2,-0.6 1.2,-1.2V15c0,-0.4 0.3,-0.9 0.6,-1.2c1.4,-1.2 2.2,-2.9 2.2,-4.7C18.3,7.4 17.5,5.7 16.2,4.5zM15.1,12.7c-0.7,0.6 -1.2,1.6 -1.2,2.4v0.4h-3.8V15c0,-0.9 -0.4,-1.7 -1.1,-2.3C7.7,11.6 7.1,10 7.4,8.4c0.3,-2 2,-3.7 4.1,-3.9c1.4,-0.2 2.7,0.3 3.7,1.2c1,0.9 1.6,2.2 1.6,3.5S16.2,11.8 15.1,12.7zM5.6,4.6c0.3,0.3 0.3,0.8 0,1.1C5.5,5.8 5.3,5.9 5.1,5.9c-0.2,0 -0.4,-0.1 -0.5,-0.2L3.2,4.3C2.9,4 2.9,3.5 3.2,3.2s0.8,-0.3 1.1,0L5.6,4.6zM18.4,5.6c-0.3,-0.3 -0.3,-0.8 0,-1.1l1.4,-1.4c0.3,-0.3 0.8,-0.3 1.1,0c0.3,0.3 0.3,0.8 0,1.1l-1.4,1.4c-0.1,0.1 -0.3,0.2 -0.5,0.2S18.6,5.7 18.4,5.6zM5.6,14.5c0.3,0.3 0.3,0.8 0,1.1L4.2,17c-0.1,0.1 -0.3,0.2 -0.5,0.2S3.3,17.1 3.2,17c-0.3,-0.3 -0.3,-0.8 0,-1.1l1.4,-1.4C4.9,14.2 5.3,14.2 5.6,14.5zM20.8,15.9c0.3,0.3 0.3,0.8 0,1.1c-0.1,0.1 -0.3,0.2 -0.5,0.2s-0.4,-0.1 -0.5,-0.2l-1.4,-1.4c-0.3,-0.3 -0.3,-0.8 0,-1.1c0.3,-0.3 0.8,-0.3 1.1,0L20.8,15.9zM4.5,11.1H2.8c-0.5,0 -0.8,-0.4 -0.8,-0.8c0,-0.4 0.3,-0.7 0.7,-0.8h1.6c0.5,0 0.8,0.4 0.8,0.8C5.1,10.7 4.8,11.1 4.5,11.1zM22,10.4c0,0.5 -0.4,0.8 -0.8,0.8h-1.7c-0.5,0 -0.8,-0.3 -0.8,-0.8s0.4,-0.8 0.8,-0.8h1.7C21.6,9.6 22,9.9 22,10.4zM14.5,18.7c0.3,0.3 0.3,0.8 0,1.1c-0.6,0.7 -1.5,1.1 -2.5,1.1c-0.9,0 -1.8,-0.3 -2.5,-1c-0.3,-0.3 -0.3,-0.8 0,-1.1s0.8,-0.3 1.1,0c0.8,0.8 2.1,0.8 2.9,0C13.7,18.5 14.2,18.5 14.5,18.7z" id="path_0"/></svg>