<svg id="vector" xmlns="http://www.w3.org/2000/svg" width="24.0d" height="24.0d" viewBox="0 0 24.0 24.0"><path fill="#F72360" d="m17.21,2.01L6.81,2.01c-1.66,0 -3,1.34 -3,3v10.89c0,1.38 1.12,2.5 2.5,2.5h0.29l-1.42,2.46c-0.21,0.36 -0.08,0.82 0.27,1.02 0.12,0.07 0.25,0.1 0.37,0.1 0.26,0 0.51,-0.13 0.65,-0.38l0.4,-0.7h10.25l0.41,0.72c0.14,0.24 0.39,0.38 0.65,0.38 0.13,0 0.26,-0.03 0.37,-0.1 0.36,-0.21 0.48,-0.67 0.27,-1.02l-1.43,-2.48h0.3c1.38,0 2.5,-1.12 2.5,-2.5L20.19,5.01c0,-1.66 -1.32,-3 -2.98,-3ZM7.58,14.61c0,-0.69 0.56,-1.25 1.25,-1.25s1.25,0.56 1.25,1.25 -0.56,1.25 -1.25,1.25 -1.25,-0.56 -1.25,-1.25ZM16.26,19.41L7.75,19.41l0.59,-1.02h7.34l0.59,1.02h-0.01ZM15.18,15.86c-0.69,0 -1.25,-0.56 -1.25,-1.25s0.56,-1.25 1.25,-1.25 1.25,0.56 1.25,1.25 -0.56,1.25 -1.25,1.25ZM18.67,10.65c0,0.55 -0.45,1 -1,1L6.34,11.65c-0.55,0 -1,-0.45 -1,-1v-3.68c0,-0.55 0.45,-1 1,-1h11.33c0.55,0 1,0.45 1,1v3.68Z" id="path_0"/></svg>