<svg id="vector" xmlns="http://www.w3.org/2000/svg" width="24.0d" height="24.0d" viewBox="0 0 24.0 24.0"><path fill="#5E7C42" d="m19.78,9.35c-1.64,-1.63 -4.28,-1.63 -5.92,0 -1.29,1.28 -1.59,3.25 -0.76,4.86 0.61,1.18 2.14,3.47 3.04,4.79 0.33,0.48 1.03,0.48 1.36,0 0.89,-1.32 2.42,-3.61 3.04,-4.79 0.84,-1.61 0.53,-3.57 -0.76,-4.86ZM16.82,14.38c-1.23,0 -2.23,-1 -2.23,-2.24s1,-2.24 2.23,-2.24 2.23,1 2.23,2.24 -1,2.24 -2.23,2.24ZM13.92,17.92c0.07,0.11 0,0.25 -0.14,0.25h-3.37v1.82c0,0.56 -0.46,1.02 -1.02,1.02h-0.09c-0.56,0 -1.03,-0.46 -1.03,-1.03v-1.82h-3.74c-1.08,0 -1.82,-1.1 -1.42,-2.11L7.92,3.97c0.51,-1.28 2.33,-1.28 2.84,0l1.96,4.91c-0.14,0.11 -0.28,0.23 -0.42,0.36 -1.29,1.28 -1.59,3.25 -0.76,4.86 0.48,0.92 1.52,2.53 2.38,3.81Z" id="path_0"/></svg>