<svg id="vector" xmlns="http://www.w3.org/2000/svg" width="24.0d" height="24.0d" viewBox="0 0 24.0 24.0"><path fill="#578626" d="m19.66,3.44L4.34,3.44c-0.74,0 -1.34,0.6 -1.34,1.34v11.09c0,0.74 0.6,1.34 1.34,1.34h10.48l3.24,3.24c0.23,0.23 0.6,0.07 0.6,-0.25v-2.98h1c0.74,0 1.34,-0.6 1.34,-1.34L21,4.78c0,-0.74 -0.6,-1.34 -1.34,-1.34h0ZM12,6.02c1.07,0 1.93,0.87 1.93,1.95s-0.87,1.95 -1.93,1.95 -1.93,-0.87 -1.93,-1.95 0.87,-1.95 1.93,-1.95ZM8.39,13.87c0.24,-1.79 1.76,-3.17 3.61,-3.17s3.36,1.38 3.61,3.17c0.03,0.26 -0.17,0.5 -0.43,0.5h-6.34c-0.26,0 -0.47,-0.23 -0.43,-0.5h0Z" id="path_0"/></svg>