<svg id="vector" xmlns="http://www.w3.org/2000/svg" width="24.0d" height="24.0d" viewBox="0 0 24.0 24.0"><path fill="#7AB15E" d="m16.97,4L7.04,4c-1.22,0 -2.2,0.99 -2.2,2.2v9.94c0,1.12 0.84,2.04 1.91,2.18v0.97c0,0.39 0.32,0.71 0.72,0.71h1.9c0.39,0 0.71,-0.32 0.71,-0.71v-0.94h3.84v0.94c0,0.39 0.32,0.71 0.72,0.71h1.9c0.39,0 0.71,-0.32 0.71,-0.71v-0.97c1.08,-0.14 1.92,-1.06 1.92,-2.18L19.17,6.2c0,-1.22 -0.99,-2.2 -2.2,-2.2ZM9.55,15.33c-0.1,0.4 -0.43,0.73 -0.82,0.82 -0.85,0.2 -1.59,-0.53 -1.4,-1.39 0.1,-0.4 0.43,-0.72 0.83,-0.82 0.84,-0.2 1.59,0.54 1.39,1.39ZM16.72,15.33c-0.1,0.4 -0.43,0.73 -0.82,0.82 -0.85,0.2 -1.6,-0.53 -1.4,-1.39 0.1,-0.4 0.43,-0.72 0.83,-0.82 0.84,-0.2 1.59,0.54 1.39,1.39ZM16.76,11.59c0,0.44 -0.36,0.78 -0.78,0.78h-7.88c-0.44,0 -0.78,-0.35 -0.78,-0.78v-4.41c0,-0.44 0.35,-0.78 0.78,-0.78h7.88c0.43,0 0.78,0.35 0.78,0.78v4.41ZM3.01,10.36c-0.41,0 -0.75,-0.34 -0.75,-0.75v-2.64c0,-0.41 0.34,-0.75 0.75,-0.75s0.75,0.34 0.75,0.75v2.64c0,0.41 -0.34,0.75 -0.75,0.75ZM21.01,10.36c-0.41,0 -0.75,-0.34 -0.75,-0.75v-2.64c0,-0.41 0.34,-0.75 0.75,-0.75s0.75,0.34 0.75,0.75v2.64c0,0.41 -0.34,0.75 -0.75,0.75Z" id="path_0"/></svg>