<svg id="vector" xmlns="http://www.w3.org/2000/svg" width="24.0d" height="24.0d" viewBox="0 0 24.0 24.0"><path fill="#3C1A6C" d="m19.44,5.17c-0.07,-0.27 -0.28,-0.47 -0.55,-0.51 -3.36,-0.59 -5.69,-1.88 -6.54,-2.4 -0.21,-0.14 -0.49,-0.14 -0.71,0 -0.42,0.26 -1.22,0.71 -2.33,1.17 -1.11,0.46 -2.53,0.94 -4.21,1.23 -0.27,0.04 -0.48,0.24 -0.55,0.51 -1.23,4.87 -0.4,9.42 2.47,12.87 1.79,2.14 3.86,3.33 4.67,3.73 0.1,0.05 0.2,0.08 0.31,0.08 0.1,0 0.21,-0.03 0.3,-0.08 0.81,-0.4 2.89,-1.59 4.67,-3.73 2.88,-3.45 3.71,-8 2.47,-12.87ZM15.36,10.64l-3.79,3.79c-0.14,0.14 -0.33,0.22 -0.53,0.22s-0.39,-0.08 -0.53,-0.22l-1.88,-1.88c-0.29,-0.3 -0.29,-0.77 0,-1.06 0.3,-0.3 0.77,-0.3 1.07,0l1.34,1.35 3.26,-3.26c0.29,-0.29 0.77,-0.29 1.06,0 0.29,0.29 0.29,0.77 0,1.06Z" id="path_0"/></svg>